<svg width="30" height="36" viewBox="0 0 30 36" fill="none" xmlns="http://www.w3.org/2000/svg">
<path d="M15 19.6667C17.7614 19.6667 20 17.4281 20 14.6667C20 11.9053 17.7614 9.66669 15 9.66669C12.2386 9.66669 10 11.9053 10 14.6667C10 17.4281 12.2386 19.6667 15 19.6667Z" stroke="black" stroke-width="2" stroke-linecap="round" stroke-linejoin="round"/>
<path d="M15 1.33334C11.4637 1.33334 8.07235 2.7381 5.57187 5.23859C3.07138 7.73907 1.66663 11.1305 1.66663 14.6667C1.66663 17.82 2.33663 19.8833 4.16663 22.1667L15 34.6667L25.8333 22.1667C27.6633 19.8833 28.3333 17.82 28.3333 14.6667C28.3333 11.1305 26.9285 7.73907 24.428 5.23859C21.9276 2.7381 18.5362 1.33334 15 1.33334V1.33334Z" stroke="black" stroke-width="2" stroke-linecap="round" stroke-linejoin="round"/>
</svg>
