<svg width="436" height="240" viewBox="0 0 436 240" fill="none" xmlns="http://www.w3.org/2000/svg">
<path d="M90.8012 37.15C92.6678 37.4833 94.2512 38.4667 95.5512 40.1C96.8512 41.7333 97.5012 43.5833 97.5012 45.65C97.5012 47.4167 97.0345 49.0167 96.1012 50.45C95.2012 51.85 93.8845 52.9667 92.1512 53.8C90.4178 54.6 88.4012 55 86.1012 55H72.2012V20.25H85.4512C87.8178 20.25 89.8512 20.65 91.5512 21.45C93.2512 22.25 94.5345 23.3333 95.4012 24.7C96.2678 26.0333 96.7012 27.5333 96.7012 29.2C96.7012 31.2 96.1678 32.8667 95.1012 34.2C94.0345 35.5333 92.6012 36.5167 90.8012 37.15ZM77.9012 34.85H84.9512C86.8178 34.85 88.2678 34.4333 89.3012 33.6C90.3678 32.7333 90.9012 31.5 90.9012 29.9C90.9012 28.3333 90.3678 27.1167 89.3012 26.25C88.2678 25.35 86.8178 24.9 84.9512 24.9H77.9012V34.85ZM85.6012 50.35C87.5345 50.35 89.0512 49.8833 90.1512 48.95C91.2512 48.0167 91.8012 46.7167 91.8012 45.05C91.8012 43.35 91.2178 42 90.0512 41C88.8845 40 87.3345 39.5 85.4012 39.5H77.9012V50.35H85.6012ZM128.645 27.45V55H122.945V51.75C122.045 52.8833 120.862 53.7833 119.395 54.45C117.962 55.0833 116.429 55.4 114.795 55.4C112.629 55.4 110.679 54.95 108.945 54.05C107.245 53.15 105.895 51.8167 104.895 50.05C103.929 48.2833 103.445 46.15 103.445 43.65V27.45H109.095V42.8C109.095 45.2667 109.712 47.1667 110.945 48.5C112.179 49.8 113.862 50.45 115.995 50.45C118.129 50.45 119.812 49.8 121.045 48.5C122.312 47.1667 122.945 45.2667 122.945 42.8V27.45H128.645ZM160.966 27.45L144.066 67.95H138.166L143.766 54.55L132.916 27.45H139.266L147.016 48.45L155.066 27.45H160.966ZM176.356 41.1C176.356 38.3333 176.923 35.8833 178.056 33.75C179.223 31.6167 180.789 29.9667 182.756 28.8C184.756 27.6 186.956 27 189.356 27C191.523 27 193.406 27.4333 195.006 28.3C196.639 29.1333 197.939 30.1833 198.906 31.45V27.45H204.656V55H198.906V50.9C197.939 52.2 196.623 53.2833 194.956 54.15C193.289 55.0167 191.389 55.45 189.256 55.45C186.889 55.45 184.723 54.85 182.756 53.65C180.789 52.4167 179.223 50.7167 178.056 48.55C176.923 46.35 176.356 43.8667 176.356 41.1ZM198.906 41.2C198.906 39.3 198.506 37.65 197.706 36.25C196.939 34.85 195.923 33.7833 194.656 33.05C193.389 32.3167 192.023 31.95 190.556 31.95C189.089 31.95 187.723 32.3167 186.456 33.05C185.189 33.75 184.156 34.8 183.356 36.2C182.589 37.5667 182.206 39.2 182.206 41.1C182.206 43 182.589 44.6667 183.356 46.1C184.156 47.5333 185.189 48.6333 186.456 49.4C187.756 50.1333 189.123 50.5 190.556 50.5C192.023 50.5 193.389 50.1333 194.656 49.4C195.923 48.6667 196.939 47.6 197.706 46.2C198.506 44.7667 198.906 43.1 198.906 41.2ZM239.381 27C241.481 27 243.348 27.45 244.981 28.35C246.648 29.25 247.948 30.5833 248.881 32.35C249.848 34.1167 250.331 36.25 250.331 38.75V55H244.681V39.6C244.681 37.1333 244.064 35.25 242.831 33.95C241.598 32.6167 239.914 31.95 237.781 31.95C235.648 31.95 233.948 32.6167 232.681 33.95C231.448 35.25 230.831 37.1333 230.831 39.6V55H225.131V18H230.831V30.65C231.798 29.4833 233.014 28.5833 234.481 27.95C235.981 27.3167 237.614 27 239.381 27ZM269.552 55.45C266.952 55.45 264.602 54.8667 262.502 53.7C260.402 52.5 258.752 50.8333 257.552 48.7C256.352 46.5333 255.752 44.0333 255.752 41.2C255.752 38.4 256.368 35.9167 257.602 33.75C258.835 31.5833 260.518 29.9167 262.652 28.75C264.785 27.5833 267.168 27 269.802 27C272.435 27 274.818 27.5833 276.952 28.75C279.085 29.9167 280.768 31.5833 282.002 33.75C283.235 35.9167 283.852 38.4 283.852 41.2C283.852 44 283.218 46.4833 281.952 48.65C280.685 50.8167 278.952 52.5 276.752 53.7C274.585 54.8667 272.185 55.45 269.552 55.45ZM269.552 50.5C271.018 50.5 272.385 50.15 273.652 49.45C274.952 48.75 276.002 47.7 276.802 46.3C277.602 44.9 278.002 43.2 278.002 41.2C278.002 39.2 277.618 37.5167 276.852 36.15C276.085 34.75 275.068 33.7 273.802 33C272.535 32.3 271.168 31.95 269.702 31.95C268.235 31.95 266.868 32.3 265.602 33C264.368 33.7 263.385 34.75 262.652 36.15C261.918 37.5167 261.552 39.2 261.552 41.2C261.552 44.1667 262.302 46.4667 263.802 48.1C265.335 49.7 267.252 50.5 269.552 50.5ZM322.836 27C325.003 27 326.936 27.45 328.636 28.35C330.37 29.25 331.72 30.5833 332.686 32.35C333.686 34.1167 334.186 36.25 334.186 38.75V55H328.536V39.6C328.536 37.1333 327.92 35.25 326.686 33.95C325.453 32.6167 323.77 31.95 321.636 31.95C319.503 31.95 317.803 32.6167 316.536 33.95C315.303 35.25 314.686 37.1333 314.686 39.6V55H309.036V39.6C309.036 37.1333 308.42 35.25 307.186 33.95C305.953 32.6167 304.27 31.95 302.136 31.95C300.003 31.95 298.303 32.6167 297.036 33.95C295.803 35.25 295.186 37.1333 295.186 39.6V55H289.486V27.45H295.186V30.6C296.12 29.4667 297.303 28.5833 298.736 27.95C300.17 27.3167 301.703 27 303.336 27C305.536 27 307.503 27.4667 309.236 28.4C310.97 29.3333 312.303 30.6833 313.236 32.45C314.07 30.7833 315.37 29.4667 317.136 28.5C318.903 27.5 320.803 27 322.836 27ZM366.689 40.55C366.689 41.5833 366.623 42.5167 366.489 43.35H345.439C345.606 45.55 346.423 47.3167 347.889 48.65C349.356 49.9833 351.156 50.65 353.289 50.65C356.356 50.65 358.523 49.3667 359.789 46.8H365.939C365.106 49.3333 363.589 51.4167 361.389 53.05C359.223 54.65 356.523 55.45 353.289 55.45C350.656 55.45 348.289 54.8667 346.189 53.7C344.123 52.5 342.489 50.8333 341.289 48.7C340.123 46.5333 339.539 44.0333 339.539 41.2C339.539 38.3667 340.106 35.8833 341.239 33.75C342.406 31.5833 344.023 29.9167 346.089 28.75C348.189 27.5833 350.589 27 353.289 27C355.889 27 358.206 27.5667 360.239 28.7C362.273 29.8333 363.856 31.4333 364.989 33.5C366.123 35.5333 366.689 37.8833 366.689 40.55ZM360.739 38.75C360.706 36.65 359.956 34.9667 358.489 33.7C357.023 32.4333 355.206 31.8 353.039 31.8C351.073 31.8 349.389 32.4333 347.989 33.7C346.589 34.9333 345.756 36.6167 345.489 38.75H360.739Z" fill="black"/>
<path d="M27.5896 102.15L20.6896 115.44V123H17.2696V115.44L10.3396 102.15H14.1496L18.9796 112.38L23.8096 102.15H27.5896ZM37.4737 123.27C35.9137 123.27 34.5037 122.92 33.2437 122.22C31.9837 121.5 30.9937 120.5 30.2737 119.22C29.5537 117.92 29.1937 116.42 29.1937 114.72C29.1937 113.04 29.5637 111.55 30.3037 110.25C31.0437 108.95 32.0537 107.95 33.3337 107.25C34.6137 106.55 36.0437 106.2 37.6237 106.2C39.2037 106.2 40.6337 106.55 41.9137 107.25C43.1937 107.95 44.2037 108.95 44.9437 110.25C45.6837 111.55 46.0537 113.04 46.0537 114.72C46.0537 116.4 45.6737 117.89 44.9137 119.19C44.1537 120.49 43.1137 121.5 41.7937 122.22C40.4937 122.92 39.0537 123.27 37.4737 123.27ZM37.4737 120.3C38.3537 120.3 39.1737 120.09 39.9337 119.67C40.7137 119.25 41.3437 118.62 41.8237 117.78C42.3037 116.94 42.5437 115.92 42.5437 114.72C42.5437 113.52 42.3137 112.51 41.8537 111.69C41.3937 110.85 40.7837 110.22 40.0237 109.8C39.2637 109.38 38.4437 109.17 37.5637 109.17C36.6837 109.17 35.8637 109.38 35.1037 109.8C34.3637 110.22 33.7737 110.85 33.3337 111.69C32.8937 112.51 32.6737 113.52 32.6737 114.72C32.6737 116.5 33.1237 117.88 34.0237 118.86C34.9437 119.82 36.0937 120.3 37.4737 120.3ZM64.4046 106.47V123H60.9846V121.05C60.4446 121.73 59.7346 122.27 58.8546 122.67C57.9946 123.05 57.0746 123.24 56.0946 123.24C54.7946 123.24 53.6246 122.97 52.5846 122.43C51.5646 121.89 50.7546 121.09 50.1546 120.03C49.5746 118.97 49.2846 117.69 49.2846 116.19V106.47H52.6746V115.68C52.6746 117.16 53.0446 118.3 53.7846 119.1C54.5246 119.88 55.5346 120.27 56.8146 120.27C58.0946 120.27 59.1046 119.88 59.8446 119.1C60.6046 118.3 60.9846 117.16 60.9846 115.68V106.47H64.4046ZM75.57 114.66C75.57 113 75.91 111.53 76.59 110.25C77.29 108.97 78.23 107.98 79.41 107.28C80.61 106.56 81.93 106.2 83.37 106.2C84.67 106.2 85.8 106.46 86.76 106.98C87.74 107.48 88.52 108.11 89.1 108.87V106.47H92.55V123H89.1V120.54C88.52 121.32 87.73 121.97 86.73 122.49C85.73 123.01 84.59 123.27 83.31 123.27C81.89 123.27 80.59 122.91 79.41 122.19C78.23 121.45 77.29 120.43 76.59 119.13C75.91 117.81 75.57 116.32 75.57 114.66ZM89.1 114.72C89.1 113.58 88.86 112.59 88.38 111.75C87.92 110.91 87.31 110.27 86.55 109.83C85.79 109.39 84.97 109.17 84.09 109.17C83.21 109.17 82.39 109.39 81.63 109.83C80.87 110.25 80.25 110.88 79.77 111.72C79.31 112.54 79.08 113.52 79.08 114.66C79.08 115.8 79.31 116.8 79.77 117.66C80.25 118.52 80.87 119.18 81.63 119.64C82.41 120.08 83.23 120.3 84.09 120.3C84.97 120.3 85.79 120.08 86.55 119.64C87.31 119.2 87.92 118.56 88.38 117.72C88.86 116.86 89.1 115.86 89.1 114.72ZM100.462 108.87C100.962 108.03 101.622 107.38 102.442 106.92C103.282 106.44 104.272 106.2 105.412 106.2V109.74H104.542C103.202 109.74 102.182 110.08 101.482 110.76C100.802 111.44 100.462 112.62 100.462 114.3V123H97.042V106.47H100.462V108.87ZM123.706 114.33C123.706 114.95 123.666 115.51 123.586 116.01H110.956C111.056 117.33 111.546 118.39 112.426 119.19C113.306 119.99 114.386 120.39 115.666 120.39C117.506 120.39 118.806 119.62 119.566 118.08H123.256C122.756 119.6 121.846 120.85 120.526 121.83C119.226 122.79 117.606 123.27 115.666 123.27C114.086 123.27 112.666 122.92 111.406 122.22C110.166 121.5 109.186 120.5 108.466 119.22C107.766 117.92 107.416 116.42 107.416 114.72C107.416 113.02 107.756 111.53 108.436 110.25C109.136 108.95 110.106 107.95 111.346 107.25C112.606 106.55 114.046 106.2 115.666 106.2C117.226 106.2 118.616 106.54 119.836 107.22C121.056 107.9 122.006 108.86 122.686 110.1C123.366 111.32 123.706 112.73 123.706 114.33ZM120.136 113.25C120.116 111.99 119.666 110.98 118.786 110.22C117.906 109.46 116.816 109.08 115.516 109.08C114.336 109.08 113.326 109.46 112.486 110.22C111.646 110.96 111.146 111.97 110.986 113.25H120.136ZM136.604 104.28C135.984 104.28 135.464 104.07 135.044 103.65C134.624 103.23 134.414 102.71 134.414 102.09C134.414 101.47 134.624 100.95 135.044 100.53C135.464 100.11 135.984 99.9 136.604 99.9C137.204 99.9 137.714 100.11 138.134 100.53C138.554 100.95 138.764 101.47 138.764 102.09C138.764 102.71 138.554 103.23 138.134 103.65C137.714 104.07 137.204 104.28 136.604 104.28ZM138.284 106.47V123H134.864V106.47H138.284ZM151.114 106.2C152.414 106.2 153.574 106.47 154.594 107.01C155.634 107.55 156.444 108.35 157.024 109.41C157.604 110.47 157.894 111.75 157.894 113.25V123H154.504V113.76C154.504 112.28 154.134 111.15 153.394 110.37C152.654 109.57 151.644 109.17 150.364 109.17C149.084 109.17 148.064 109.57 147.304 110.37C146.564 111.15 146.194 112.28 146.194 113.76V123H142.774V106.47H146.194V108.36C146.754 107.68 147.464 107.15 148.324 106.77C149.204 106.39 150.134 106.2 151.114 106.2ZM174.04 109.26V118.41C174.04 119.03 174.18 119.48 174.46 119.76C174.76 120.02 175.26 120.15 175.96 120.15H178.06V123H175.36C173.82 123 172.64 122.64 171.82 121.92C171 121.2 170.59 120.03 170.59 118.41V109.26H168.64V106.47H170.59V102.36H174.04V106.47H178.06V109.26H174.04ZM189.762 106.2C191.022 106.2 192.142 106.47 193.122 107.01C194.122 107.55 194.902 108.35 195.462 109.41C196.042 110.47 196.332 111.75 196.332 113.25V123H192.942V113.76C192.942 112.28 192.572 111.15 191.832 110.37C191.092 109.57 190.082 109.17 188.802 109.17C187.522 109.17 186.502 109.57 185.742 110.37C185.002 111.15 184.632 112.28 184.632 113.76V123H181.212V100.8H184.632V108.39C185.212 107.69 185.942 107.15 186.822 106.77C187.722 106.39 188.702 106.2 189.762 106.2ZM215.844 114.33C215.844 114.95 215.804 115.51 215.724 116.01H203.094C203.194 117.33 203.684 118.39 204.564 119.19C205.444 119.99 206.524 120.39 207.804 120.39C209.644 120.39 210.944 119.62 211.704 118.08H215.394C214.894 119.6 213.984 120.85 212.664 121.83C211.364 122.79 209.744 123.27 207.804 123.27C206.224 123.27 204.804 122.92 203.544 122.22C202.304 121.5 201.324 120.5 200.604 119.22C199.904 117.92 199.554 116.42 199.554 114.72C199.554 113.02 199.894 111.53 200.574 110.25C201.274 108.95 202.244 107.95 203.484 107.25C204.744 106.55 206.184 106.2 207.804 106.2C209.364 106.2 210.754 106.54 211.974 107.22C213.194 107.9 214.144 108.86 214.824 110.1C215.504 111.32 215.844 112.73 215.844 114.33ZM212.274 113.25C212.254 111.99 211.804 110.98 210.924 110.22C210.044 109.46 208.954 109.08 207.654 109.08C206.474 109.08 205.464 109.46 204.624 110.22C203.784 110.96 203.284 111.97 203.124 113.25H212.274ZM230.423 108.87C230.923 108.03 231.583 107.38 232.403 106.92C233.243 106.44 234.233 106.2 235.373 106.2V109.74H234.503C233.163 109.74 232.143 110.08 231.443 110.76C230.763 111.44 230.423 112.62 230.423 114.3V123H227.003V106.47H230.423V108.87ZM240.257 104.28C239.637 104.28 239.117 104.07 238.697 103.65C238.277 103.23 238.067 102.71 238.067 102.09C238.067 101.47 238.277 100.95 238.697 100.53C239.117 100.11 239.637 99.9 240.257 99.9C240.857 99.9 241.367 100.11 241.787 100.53C242.207 100.95 242.417 101.47 242.417 102.09C242.417 102.71 242.207 103.23 241.787 103.65C241.367 104.07 240.857 104.28 240.257 104.28ZM241.937 106.47V123H238.517V106.47H241.937ZM253.087 106.2C254.367 106.2 255.497 106.46 256.477 106.98C257.477 107.48 258.257 108.11 258.817 108.87V106.47H262.267V123.27C262.267 124.79 261.947 126.14 261.307 127.32C260.667 128.52 259.737 129.46 258.517 130.14C257.317 130.82 255.877 131.16 254.197 131.16C251.957 131.16 250.097 130.63 248.617 129.57C247.137 128.53 246.297 127.11 246.097 125.31H249.487C249.747 126.17 250.297 126.86 251.137 127.38C251.997 127.92 253.017 128.19 254.197 128.19C255.577 128.19 256.687 127.77 257.527 126.93C258.387 126.09 258.817 124.87 258.817 123.27V120.51C258.237 121.29 257.447 121.95 256.447 122.49C255.467 123.01 254.347 123.27 253.087 123.27C251.647 123.27 250.327 122.91 249.127 122.19C247.947 121.45 247.007 120.43 246.307 119.13C245.627 117.81 245.287 116.32 245.287 114.66C245.287 113 245.627 111.53 246.307 110.25C247.007 108.97 247.947 107.98 249.127 107.28C250.327 106.56 251.647 106.2 253.087 106.2ZM258.817 114.72C258.817 113.58 258.577 112.59 258.097 111.75C257.637 110.91 257.027 110.27 256.267 109.83C255.507 109.39 254.687 109.17 253.807 109.17C252.927 109.17 252.107 109.39 251.347 109.83C250.587 110.25 249.967 110.88 249.487 111.72C249.027 112.54 248.797 113.52 248.797 114.66C248.797 115.8 249.027 116.8 249.487 117.66C249.967 118.52 250.587 119.18 251.347 119.64C252.127 120.08 252.947 120.3 253.807 120.3C254.687 120.3 255.507 120.08 256.267 119.64C257.027 119.2 257.637 118.56 258.097 117.72C258.577 116.86 258.817 115.86 258.817 114.72ZM275.309 106.2C276.569 106.2 277.689 106.47 278.669 107.01C279.669 107.55 280.449 108.35 281.009 109.41C281.589 110.47 281.879 111.75 281.879 113.25V123H278.489V113.76C278.489 112.28 278.119 111.15 277.379 110.37C276.639 109.57 275.629 109.17 274.349 109.17C273.069 109.17 272.049 109.57 271.289 110.37C270.549 111.15 270.179 112.28 270.179 113.76V123H266.759V100.8H270.179V108.39C270.759 107.69 271.489 107.15 272.369 106.77C273.269 106.39 274.249 106.2 275.309 106.2ZM290.231 109.26V118.41C290.231 119.03 290.371 119.48 290.651 119.76C290.951 120.02 291.451 120.15 292.151 120.15H294.251V123H291.551C290.011 123 288.831 122.64 288.011 121.92C287.191 121.2 286.781 120.03 286.781 118.41V109.26H284.831V106.47H286.781V102.36H290.231V106.47H294.251V109.26H290.231ZM308.616 108.9C309.196 108.14 309.986 107.5 310.986 106.98C311.986 106.46 313.116 106.2 314.376 106.2C315.816 106.2 317.126 106.56 318.306 107.28C319.506 107.98 320.446 108.97 321.126 110.25C321.806 111.53 322.146 113 322.146 114.66C322.146 116.32 321.806 117.81 321.126 119.13C320.446 120.43 319.506 121.45 318.306 122.19C317.126 122.91 315.816 123.27 314.376 123.27C313.116 123.27 311.996 123.02 311.016 122.52C310.036 122 309.236 121.36 308.616 120.6V130.86H305.196V106.47H308.616V108.9ZM318.666 114.66C318.666 113.52 318.426 112.54 317.946 111.72C317.486 110.88 316.866 110.25 316.086 109.83C315.326 109.39 314.506 109.17 313.626 109.17C312.766 109.17 311.946 109.39 311.166 109.83C310.406 110.27 309.786 110.91 309.306 111.75C308.846 112.59 308.616 113.58 308.616 114.72C308.616 115.86 308.846 116.86 309.306 117.72C309.786 118.56 310.406 119.2 311.166 119.64C311.946 120.08 312.766 120.3 313.626 120.3C314.506 120.3 315.326 120.08 316.086 119.64C316.866 119.18 317.486 118.52 317.946 117.66C318.426 116.8 318.666 115.8 318.666 114.66ZM328.948 100.8V123H325.528V100.8H328.948ZM332.298 114.66C332.298 113 332.638 111.53 333.318 110.25C334.018 108.97 334.958 107.98 336.138 107.28C337.338 106.56 338.658 106.2 340.098 106.2C341.398 106.2 342.528 106.46 343.488 106.98C344.468 107.48 345.248 108.11 345.828 108.87V106.47H349.278V123H345.828V120.54C345.248 121.32 344.458 121.97 343.458 122.49C342.458 123.01 341.318 123.27 340.038 123.27C338.618 123.27 337.318 122.91 336.138 122.19C334.958 121.45 334.018 120.43 333.318 119.13C332.638 117.81 332.298 116.32 332.298 114.66ZM345.828 114.72C345.828 113.58 345.588 112.59 345.108 111.75C344.648 110.91 344.038 110.27 343.278 109.83C342.518 109.39 341.698 109.17 340.818 109.17C339.938 109.17 339.118 109.39 338.358 109.83C337.598 110.25 336.978 110.88 336.498 111.72C336.038 112.54 335.808 113.52 335.808 114.66C335.808 115.8 336.038 116.8 336.498 117.66C336.978 118.52 337.598 119.18 338.358 119.64C339.138 120.08 339.958 120.3 340.818 120.3C341.698 120.3 342.518 120.08 343.278 119.64C344.038 119.2 344.648 118.56 345.108 117.72C345.588 116.86 345.828 115.86 345.828 114.72ZM352.631 114.72C352.631 113.02 352.971 111.53 353.651 110.25C354.351 108.95 355.311 107.95 356.531 107.25C357.751 106.55 359.151 106.2 360.731 106.2C362.731 106.2 364.381 106.68 365.681 107.64C367.001 108.58 367.891 109.93 368.351 111.69H364.661C364.361 110.87 363.881 110.23 363.221 109.77C362.561 109.31 361.731 109.08 360.731 109.08C359.331 109.08 358.211 109.58 357.371 110.58C356.551 111.56 356.141 112.94 356.141 114.72C356.141 116.5 356.551 117.89 357.371 118.89C358.211 119.89 359.331 120.39 360.731 120.39C362.711 120.39 364.021 119.52 364.661 117.78H368.351C367.871 119.46 366.971 120.8 365.651 121.8C364.331 122.78 362.691 123.27 360.731 123.27C359.151 123.27 357.751 122.92 356.531 122.22C355.311 121.5 354.351 120.5 353.651 119.22C352.971 117.92 352.631 116.42 352.631 114.72ZM386.909 114.33C386.909 114.95 386.869 115.51 386.789 116.01H374.159C374.259 117.33 374.749 118.39 375.629 119.19C376.509 119.99 377.589 120.39 378.869 120.39C380.709 120.39 382.009 119.62 382.769 118.08H386.459C385.959 119.6 385.049 120.85 383.729 121.83C382.429 122.79 380.809 123.27 378.869 123.27C377.289 123.27 375.869 122.92 374.609 122.22C373.369 121.5 372.389 120.5 371.669 119.22C370.969 117.92 370.619 116.42 370.619 114.72C370.619 113.02 370.959 111.53 371.639 110.25C372.339 108.95 373.309 107.95 374.549 107.25C375.809 106.55 377.249 106.2 378.869 106.2C380.429 106.2 381.819 106.54 383.039 107.22C384.259 107.9 385.209 108.86 385.889 110.1C386.569 111.32 386.909 112.73 386.909 114.33ZM383.339 113.25C383.319 111.99 382.869 110.98 381.989 110.22C381.109 109.46 380.019 109.08 378.719 109.08C377.539 109.08 376.529 109.46 375.689 110.22C374.849 110.96 374.349 111.97 374.189 113.25H383.339ZM402.057 109.26V118.41C402.057 119.03 402.197 119.48 402.477 119.76C402.777 120.02 403.277 120.15 403.977 120.15H406.077V123H403.377C401.837 123 400.657 122.64 399.837 121.92C399.017 121.2 398.607 120.03 398.607 118.41V109.26H396.657V106.47H398.607V102.36H402.057V106.47H406.077V109.26H402.057ZM416.399 123.27C414.839 123.27 413.429 122.92 412.169 122.22C410.909 121.5 409.919 120.5 409.199 119.22C408.479 117.92 408.119 116.42 408.119 114.72C408.119 113.04 408.489 111.55 409.229 110.25C409.969 108.95 410.979 107.95 412.259 107.25C413.539 106.55 414.969 106.2 416.549 106.2C418.129 106.2 419.559 106.55 420.839 107.25C422.119 107.95 423.129 108.95 423.869 110.25C424.609 111.55 424.979 113.04 424.979 114.72C424.979 116.4 424.599 117.89 423.839 119.19C423.079 120.49 422.039 121.5 420.719 122.22C419.419 122.92 417.979 123.27 416.399 123.27ZM416.399 120.3C417.279 120.3 418.099 120.09 418.859 119.67C419.639 119.25 420.269 118.62 420.749 117.78C421.229 116.94 421.469 115.92 421.469 114.72C421.469 113.52 421.239 112.51 420.779 111.69C420.319 110.85 419.709 110.22 418.949 109.8C418.189 109.38 417.369 109.17 416.489 109.17C415.609 109.17 414.789 109.38 414.029 109.8C413.289 110.22 412.699 110.85 412.259 111.69C411.819 112.51 411.599 113.52 411.599 114.72C411.599 116.5 412.049 117.88 412.949 118.86C413.869 119.82 415.019 120.3 416.399 120.3ZM57.7708 154.26H54.7108V168H51.2608V154.26H49.3108V151.47H51.2608V150.3C51.2608 148.4 51.7608 147.02 52.7608 146.16C53.7808 145.28 55.3708 144.84 57.5308 144.84V147.69C56.4908 147.69 55.7608 147.89 55.3408 148.29C54.9208 148.67 54.7108 149.34 54.7108 150.3V151.47H57.7708V154.26ZM62.5418 149.28C61.9218 149.28 61.4018 149.07 60.9818 148.65C60.5618 148.23 60.3518 147.71 60.3518 147.09C60.3518 146.47 60.5618 145.95 60.9818 145.53C61.4018 145.11 61.9218 144.9 62.5418 144.9C63.1418 144.9 63.6518 145.11 64.0718 145.53C64.4918 145.95 64.7018 146.47 64.7018 147.09C64.7018 147.71 64.4918 148.23 64.0718 148.65C63.6518 149.07 63.1418 149.28 62.5418 149.28ZM64.2218 151.47V168H60.8018V151.47H64.2218ZM77.0519 151.2C78.3519 151.2 79.5119 151.47 80.5319 152.01C81.5719 152.55 82.3819 153.35 82.9619 154.41C83.5419 155.47 83.8319 156.75 83.8319 158.25V168H80.4419V158.76C80.4419 157.28 80.0719 156.15 79.3319 155.37C78.5919 154.57 77.5819 154.17 76.3019 154.17C75.0219 154.17 74.0019 154.57 73.2419 155.37C72.5019 156.15 72.1319 157.28 72.1319 158.76V168H68.7119V151.47H72.1319V153.36C72.6919 152.68 73.4019 152.15 74.2619 151.77C75.1419 151.39 76.0719 151.2 77.0519 151.2ZM87.0543 159.66C87.0543 158 87.3943 156.53 88.0743 155.25C88.7743 153.97 89.7143 152.98 90.8943 152.28C92.0943 151.56 93.4243 151.2 94.8843 151.2C95.9643 151.2 97.0243 151.44 98.0643 151.92C99.1243 152.38 99.9643 153 100.584 153.78V145.8H104.034V168H100.584V165.51C100.024 166.31 99.2443 166.97 98.2443 167.49C97.2643 168.01 96.1343 168.27 94.8543 168.27C93.4143 168.27 92.0943 167.91 90.8943 167.19C89.7143 166.45 88.7743 165.43 88.0743 164.13C87.3943 162.81 87.0543 161.32 87.0543 159.66ZM100.584 159.72C100.584 158.58 100.344 157.59 99.8643 156.75C99.4043 155.91 98.7943 155.27 98.0343 154.83C97.2743 154.39 96.4543 154.17 95.5743 154.17C94.6943 154.17 93.8743 154.39 93.1143 154.83C92.3543 155.25 91.7343 155.88 91.2543 156.72C90.7943 157.54 90.5643 158.52 90.5643 159.66C90.5643 160.8 90.7943 161.8 91.2543 162.66C91.7343 163.52 92.3543 164.18 93.1143 164.64C93.8943 165.08 94.7143 165.3 95.5743 165.3C96.4543 165.3 97.2743 165.08 98.0343 164.64C98.7943 164.2 99.4043 163.56 99.8643 162.72C100.344 161.86 100.584 160.86 100.584 159.72ZM131.199 151.47L121.059 175.77H117.519L120.879 167.73L114.369 151.47H118.179L122.829 164.07L127.659 151.47H131.199ZM140.95 168.27C139.39 168.27 137.98 167.92 136.72 167.22C135.46 166.5 134.47 165.5 133.75 164.22C133.03 162.92 132.67 161.42 132.67 159.72C132.67 158.04 133.04 156.55 133.78 155.25C134.52 153.95 135.53 152.95 136.81 152.25C138.09 151.55 139.52 151.2 141.1 151.2C142.68 151.2 144.11 151.55 145.39 152.25C146.67 152.95 147.68 153.95 148.42 155.25C149.16 156.55 149.53 158.04 149.53 159.72C149.53 161.4 149.15 162.89 148.39 164.19C147.63 165.49 146.59 166.5 145.27 167.22C143.97 167.92 142.53 168.27 140.95 168.27ZM140.95 165.3C141.83 165.3 142.65 165.09 143.41 164.67C144.19 164.25 144.82 163.62 145.3 162.78C145.78 161.94 146.02 160.92 146.02 159.72C146.02 158.52 145.79 157.51 145.33 156.69C144.87 155.85 144.26 155.22 143.5 154.8C142.74 154.38 141.92 154.17 141.04 154.17C140.16 154.17 139.34 154.38 138.58 154.8C137.84 155.22 137.25 155.85 136.81 156.69C136.37 157.51 136.15 158.52 136.15 159.72C136.15 161.5 136.6 162.88 137.5 163.86C138.42 164.82 139.57 165.3 140.95 165.3ZM167.881 151.47V168H164.461V166.05C163.921 166.73 163.211 167.27 162.331 167.67C161.471 168.05 160.551 168.24 159.571 168.24C158.271 168.24 157.101 167.97 156.061 167.43C155.041 166.89 154.231 166.09 153.631 165.03C153.051 163.97 152.761 162.69 152.761 161.19V151.47H156.151V160.68C156.151 162.16 156.521 163.3 157.261 164.1C158.001 164.88 159.011 165.27 160.291 165.27C161.571 165.27 162.581 164.88 163.321 164.1C164.081 163.3 164.461 162.16 164.461 160.68V151.47H167.881ZM175.814 153.87C176.314 153.03 176.974 152.38 177.794 151.92C178.634 151.44 179.624 151.2 180.764 151.2V154.74H179.894C178.554 154.74 177.534 155.08 176.834 155.76C176.154 156.44 175.814 157.62 175.814 159.3V168H172.394V151.47H175.814V153.87ZM190.56 159.66C190.56 158 190.9 156.53 191.58 155.25C192.28 153.97 193.22 152.98 194.4 152.28C195.6 151.56 196.93 151.2 198.39 151.2C199.47 151.2 200.53 151.44 201.57 151.92C202.63 152.38 203.47 153 204.09 153.78V145.8H207.54V168H204.09V165.51C203.53 166.31 202.75 166.97 201.75 167.49C200.77 168.01 199.64 168.27 198.36 168.27C196.92 168.27 195.6 167.91 194.4 167.19C193.22 166.45 192.28 165.43 191.58 164.13C190.9 162.81 190.56 161.32 190.56 159.66ZM204.09 159.72C204.09 158.58 203.85 157.59 203.37 156.75C202.91 155.91 202.3 155.27 201.54 154.83C200.78 154.39 199.96 154.17 199.08 154.17C198.2 154.17 197.38 154.39 196.62 154.83C195.86 155.25 195.24 155.88 194.76 156.72C194.3 157.54 194.07 158.52 194.07 159.66C194.07 160.8 194.3 161.8 194.76 162.66C195.24 163.52 195.86 164.18 196.62 164.64C197.4 165.08 198.22 165.3 199.08 165.3C199.96 165.3 200.78 165.08 201.54 164.64C202.3 164.2 202.91 163.56 203.37 162.72C203.85 161.86 204.09 160.86 204.09 159.72ZM215.452 153.87C215.952 153.03 216.612 152.38 217.432 151.92C218.272 151.44 219.262 151.2 220.402 151.2V154.74H219.532C218.192 154.74 217.172 155.08 216.472 155.76C215.792 156.44 215.452 157.62 215.452 159.3V168H212.032V151.47H215.452V153.87ZM238.696 159.33C238.696 159.95 238.656 160.51 238.576 161.01H225.946C226.046 162.33 226.536 163.39 227.416 164.19C228.296 164.99 229.376 165.39 230.656 165.39C232.496 165.39 233.796 164.62 234.556 163.08H238.246C237.746 164.6 236.836 165.85 235.516 166.83C234.216 167.79 232.596 168.27 230.656 168.27C229.076 168.27 227.656 167.92 226.396 167.22C225.156 166.5 224.176 165.5 223.456 164.22C222.756 162.92 222.406 161.42 222.406 159.72C222.406 158.02 222.746 156.53 223.426 155.25C224.126 153.95 225.096 152.95 226.336 152.25C227.596 151.55 229.036 151.2 230.656 151.2C232.216 151.2 233.606 151.54 234.826 152.22C236.046 152.9 236.996 153.86 237.676 155.1C238.356 156.32 238.696 157.73 238.696 159.33ZM235.126 158.25C235.106 156.99 234.656 155.98 233.776 155.22C232.896 154.46 231.806 154.08 230.506 154.08C229.326 154.08 228.316 154.46 227.476 155.22C226.636 155.96 226.136 156.97 225.976 158.25H235.126ZM240.922 159.66C240.922 158 241.262 156.53 241.942 155.25C242.642 153.97 243.582 152.98 244.762 152.28C245.962 151.56 247.282 151.2 248.722 151.2C250.022 151.2 251.152 151.46 252.112 151.98C253.092 152.48 253.872 153.11 254.452 153.87V151.47H257.902V168H254.452V165.54C253.872 166.32 253.082 166.97 252.082 167.49C251.082 168.01 249.942 168.27 248.662 168.27C247.242 168.27 245.942 167.91 244.762 167.19C243.582 166.45 242.642 165.43 241.942 164.13C241.262 162.81 240.922 161.32 240.922 159.66ZM254.452 159.72C254.452 158.58 254.212 157.59 253.732 156.75C253.272 155.91 252.662 155.27 251.902 154.83C251.142 154.39 250.322 154.17 249.442 154.17C248.562 154.17 247.742 154.39 246.982 154.83C246.222 155.25 245.602 155.88 245.122 156.72C244.662 157.54 244.432 158.52 244.432 159.66C244.432 160.8 244.662 161.8 245.122 162.66C245.602 163.52 246.222 164.18 246.982 164.64C247.762 165.08 248.582 165.3 249.442 165.3C250.322 165.3 251.142 165.08 251.902 164.64C252.662 164.2 253.272 163.56 253.732 162.72C254.212 161.86 254.452 160.86 254.452 159.72ZM282.404 151.2C283.704 151.2 284.864 151.47 285.884 152.01C286.924 152.55 287.734 153.35 288.314 154.41C288.914 155.47 289.214 156.75 289.214 158.25V168H285.824V158.76C285.824 157.28 285.454 156.15 284.714 155.37C283.974 154.57 282.964 154.17 281.684 154.17C280.404 154.17 279.384 154.57 278.624 155.37C277.884 156.15 277.514 157.28 277.514 158.76V168H274.124V158.76C274.124 157.28 273.754 156.15 273.014 155.37C272.274 154.57 271.264 154.17 269.984 154.17C268.704 154.17 267.684 154.57 266.924 155.37C266.184 156.15 265.814 157.28 265.814 158.76V168H262.394V151.47H265.814V153.36C266.374 152.68 267.084 152.15 267.944 151.77C268.804 151.39 269.724 151.2 270.704 151.2C272.024 151.2 273.204 151.48 274.244 152.04C275.284 152.6 276.084 153.41 276.644 154.47C277.144 153.47 277.924 152.68 278.984 152.1C280.044 151.5 281.184 151.2 282.404 151.2ZM309.908 151.2C311.168 151.2 312.288 151.47 313.268 152.01C314.268 152.55 315.048 153.35 315.608 154.41C316.188 155.47 316.478 156.75 316.478 158.25V168H313.088V158.76C313.088 157.28 312.718 156.15 311.978 155.37C311.238 154.57 310.228 154.17 308.948 154.17C307.668 154.17 306.648 154.57 305.888 155.37C305.148 156.15 304.778 157.28 304.778 158.76V168H301.358V145.8H304.778V153.39C305.358 152.69 306.088 152.15 306.968 151.77C307.868 151.39 308.848 151.2 309.908 151.2ZM328.011 168.27C326.451 168.27 325.041 167.92 323.781 167.22C322.521 166.5 321.531 165.5 320.811 164.22C320.091 162.92 319.731 161.42 319.731 159.72C319.731 158.04 320.101 156.55 320.841 155.25C321.581 153.95 322.591 152.95 323.871 152.25C325.151 151.55 326.581 151.2 328.161 151.2C329.741 151.2 331.171 151.55 332.451 152.25C333.731 152.95 334.741 153.95 335.481 155.25C336.221 156.55 336.591 158.04 336.591 159.72C336.591 161.4 336.211 162.89 335.451 164.19C334.691 165.49 333.651 166.5 332.331 167.22C331.031 167.92 329.591 168.27 328.011 168.27ZM328.011 165.3C328.891 165.3 329.711 165.09 330.471 164.67C331.251 164.25 331.881 163.62 332.361 162.78C332.841 161.94 333.081 160.92 333.081 159.72C333.081 158.52 332.851 157.51 332.391 156.69C331.931 155.85 331.321 155.22 330.561 154.8C329.801 154.38 328.981 154.17 328.101 154.17C327.221 154.17 326.401 154.38 325.641 154.8C324.901 155.22 324.311 155.85 323.871 156.69C323.431 157.51 323.211 158.52 323.211 159.72C323.211 161.5 323.661 162.88 324.561 163.86C325.481 164.82 326.631 165.3 328.011 165.3ZM359.982 151.2C361.282 151.2 362.442 151.47 363.462 152.01C364.502 152.55 365.312 153.35 365.892 154.41C366.492 155.47 366.792 156.75 366.792 158.25V168H363.402V158.76C363.402 157.28 363.032 156.15 362.292 155.37C361.552 154.57 360.542 154.17 359.262 154.17C357.982 154.17 356.962 154.57 356.202 155.37C355.462 156.15 355.092 157.28 355.092 158.76V168H351.702V158.76C351.702 157.28 351.332 156.15 350.592 155.37C349.852 154.57 348.842 154.17 347.562 154.17C346.282 154.17 345.262 154.57 344.502 155.37C343.762 156.15 343.392 157.28 343.392 158.76V168H339.972V151.47H343.392V153.36C343.952 152.68 344.662 152.15 345.522 151.77C346.382 151.39 347.302 151.2 348.282 151.2C349.602 151.2 350.782 151.48 351.822 152.04C352.862 152.6 353.662 153.41 354.222 154.47C354.722 153.47 355.502 152.68 356.562 152.1C357.622 151.5 358.762 151.2 359.982 151.2ZM386.294 159.33C386.294 159.95 386.254 160.51 386.174 161.01H373.544C373.644 162.33 374.134 163.39 375.014 164.19C375.894 164.99 376.974 165.39 378.254 165.39C380.094 165.39 381.394 164.62 382.154 163.08H385.844C385.344 164.6 384.434 165.85 383.114 166.83C381.814 167.79 380.194 168.27 378.254 168.27C376.674 168.27 375.254 167.92 373.994 167.22C372.754 166.5 371.774 165.5 371.054 164.22C370.354 162.92 370.004 161.42 370.004 159.72C370.004 158.02 370.344 156.53 371.024 155.25C371.724 153.95 372.694 152.95 373.934 152.25C375.194 151.55 376.634 151.2 378.254 151.2C379.814 151.2 381.204 151.54 382.424 152.22C383.644 152.9 384.594 153.86 385.274 155.1C385.954 156.32 386.294 157.73 386.294 159.33ZM382.724 158.25C382.704 156.99 382.254 155.98 381.374 155.22C380.494 154.46 379.404 154.08 378.104 154.08C376.924 154.08 375.914 154.46 375.074 155.22C374.234 155.96 373.734 156.97 373.574 158.25H382.724Z" fill="#828282"/>
<path d="M149.21 207.15V228H145.79V213.72L139.43 228H137.06L130.67 213.72V228H127.25V207.15H130.94L138.26 223.5L145.55 207.15H149.21ZM160.875 228.27C159.315 228.27 157.905 227.92 156.645 227.22C155.385 226.5 154.395 225.5 153.675 224.22C152.955 222.92 152.595 221.42 152.595 219.72C152.595 218.04 152.965 216.55 153.705 215.25C154.445 213.95 155.455 212.95 156.735 212.25C158.015 211.55 159.445 211.2 161.025 211.2C162.605 211.2 164.035 211.55 165.315 212.25C166.595 212.95 167.605 213.95 168.345 215.25C169.085 216.55 169.455 218.04 169.455 219.72C169.455 221.4 169.075 222.89 168.315 224.19C167.555 225.49 166.515 226.5 165.195 227.22C163.895 227.92 162.455 228.27 160.875 228.27ZM160.875 225.3C161.755 225.3 162.575 225.09 163.335 224.67C164.115 224.25 164.745 223.62 165.225 222.78C165.705 221.94 165.945 220.92 165.945 219.72C165.945 218.52 165.715 217.51 165.255 216.69C164.795 215.85 164.185 215.22 163.425 214.8C162.665 214.38 161.845 214.17 160.965 214.17C160.085 214.17 159.265 214.38 158.505 214.8C157.765 215.22 157.175 215.85 156.735 216.69C156.295 217.51 156.075 218.52 156.075 219.72C156.075 221.5 156.525 222.88 157.425 223.86C158.345 224.82 159.495 225.3 160.875 225.3ZM176.256 213.87C176.756 213.03 177.416 212.38 178.236 211.92C179.076 211.44 180.066 211.2 181.206 211.2V214.74H180.336C178.996 214.74 177.976 215.08 177.276 215.76C176.596 216.44 176.256 217.62 176.256 219.3V228H172.836V211.47H176.256V213.87ZM199.5 219.33C199.5 219.95 199.46 220.51 199.38 221.01H186.75C186.85 222.33 187.34 223.39 188.22 224.19C189.1 224.99 190.18 225.39 191.46 225.39C193.3 225.39 194.6 224.62 195.36 223.08H199.05C198.55 224.6 197.64 225.85 196.32 226.83C195.02 227.79 193.4 228.27 191.46 228.27C189.88 228.27 188.46 227.92 187.2 227.22C185.96 226.5 184.98 225.5 184.26 224.22C183.56 222.92 183.21 221.42 183.21 219.72C183.21 218.02 183.55 216.53 184.23 215.25C184.93 213.95 185.9 212.95 187.14 212.25C188.4 211.55 189.84 211.2 191.46 211.2C193.02 211.2 194.41 211.54 195.63 212.22C196.85 212.9 197.8 213.86 198.48 215.1C199.16 216.32 199.5 217.73 199.5 219.33ZM195.93 218.25C195.91 216.99 195.46 215.98 194.58 215.22C193.7 214.46 192.61 214.08 191.31 214.08C190.13 214.08 189.12 214.46 188.28 215.22C187.44 215.96 186.94 216.97 186.78 218.25H195.93ZM209.518 219.66C209.518 218 209.858 216.53 210.538 215.25C211.238 213.97 212.178 212.98 213.358 212.28C214.558 211.56 215.888 211.2 217.348 211.2C218.428 211.2 219.488 211.44 220.528 211.92C221.588 212.38 222.428 213 223.048 213.78V205.8H226.498V228H223.048V225.51C222.488 226.31 221.708 226.97 220.708 227.49C219.728 228.01 218.598 228.27 217.318 228.27C215.878 228.27 214.558 227.91 213.358 227.19C212.178 226.45 211.238 225.43 210.538 224.13C209.858 222.81 209.518 221.32 209.518 219.66ZM223.048 219.72C223.048 218.58 222.808 217.59 222.328 216.75C221.868 215.91 221.258 215.27 220.498 214.83C219.738 214.39 218.918 214.17 218.038 214.17C217.158 214.17 216.338 214.39 215.578 214.83C214.818 215.25 214.198 215.88 213.718 216.72C213.258 217.54 213.028 218.52 213.028 219.66C213.028 220.8 213.258 221.8 213.718 222.66C214.198 223.52 214.818 224.18 215.578 224.64C216.358 225.08 217.178 225.3 218.038 225.3C218.918 225.3 219.738 225.08 220.498 224.64C221.258 224.2 221.868 223.56 222.328 222.72C222.808 221.86 223.048 220.86 223.048 219.72ZM246.14 219.33C246.14 219.95 246.1 220.51 246.02 221.01H233.39C233.49 222.33 233.98 223.39 234.86 224.19C235.74 224.99 236.82 225.39 238.1 225.39C239.94 225.39 241.24 224.62 242 223.08H245.69C245.19 224.6 244.28 225.85 242.96 226.83C241.66 227.79 240.04 228.27 238.1 228.27C236.52 228.27 235.1 227.92 233.84 227.22C232.6 226.5 231.62 225.5 230.9 224.22C230.2 222.92 229.85 221.42 229.85 219.72C229.85 218.02 230.19 216.53 230.87 215.25C231.57 213.95 232.54 212.95 233.78 212.25C235.04 211.55 236.48 211.2 238.1 211.2C239.66 211.2 241.05 211.54 242.27 212.22C243.49 212.9 244.44 213.86 245.12 215.1C245.8 216.32 246.14 217.73 246.14 219.33ZM242.57 218.25C242.55 216.99 242.1 215.98 241.22 215.22C240.34 214.46 239.25 214.08 237.95 214.08C236.77 214.08 235.76 214.46 234.92 215.22C234.08 215.96 233.58 216.97 233.42 218.25H242.57ZM253.496 214.26V223.41C253.496 224.03 253.636 224.48 253.916 224.76C254.216 225.02 254.716 225.15 255.416 225.15H257.516V228H254.816C253.276 228 252.096 227.64 251.276 226.92C250.456 226.2 250.046 225.03 250.046 223.41V214.26H248.096V211.47H250.046V207.36H253.496V211.47H257.516V214.26H253.496ZM259.528 219.66C259.528 218 259.868 216.53 260.548 215.25C261.248 213.97 262.188 212.98 263.368 212.28C264.568 211.56 265.888 211.2 267.328 211.2C268.628 211.2 269.758 211.46 270.718 211.98C271.698 212.48 272.478 213.11 273.058 213.87V211.47H276.508V228H273.058V225.54C272.478 226.32 271.688 226.97 270.688 227.49C269.688 228.01 268.548 228.27 267.268 228.27C265.848 228.27 264.548 227.91 263.368 227.19C262.188 226.45 261.248 225.43 260.548 224.13C259.868 222.81 259.528 221.32 259.528 219.66ZM273.058 219.72C273.058 218.58 272.818 217.59 272.338 216.75C271.878 215.91 271.268 215.27 270.508 214.83C269.748 214.39 268.928 214.17 268.048 214.17C267.168 214.17 266.348 214.39 265.588 214.83C264.828 215.25 264.208 215.88 263.728 216.72C263.268 217.54 263.038 218.52 263.038 219.66C263.038 220.8 263.268 221.8 263.728 222.66C264.208 223.52 264.828 224.18 265.588 224.64C266.368 225.08 267.188 225.3 268.048 225.3C268.928 225.3 269.748 225.08 270.508 224.64C271.268 224.2 271.878 223.56 272.338 222.72C272.818 221.86 273.058 220.86 273.058 219.72ZM282.74 209.28C282.12 209.28 281.6 209.07 281.18 208.65C280.76 208.23 280.55 207.71 280.55 207.09C280.55 206.47 280.76 205.95 281.18 205.53C281.6 205.11 282.12 204.9 282.74 204.9C283.34 204.9 283.85 205.11 284.27 205.53C284.69 205.95 284.9 206.47 284.9 207.09C284.9 207.71 284.69 208.23 284.27 208.65C283.85 209.07 283.34 209.28 282.74 209.28ZM284.42 211.47V228H281V211.47H284.42ZM292.33 205.8V228H288.91V205.8H292.33ZM302.82 228.27C301.52 228.27 300.35 228.04 299.31 227.58C298.29 227.1 297.48 226.46 296.88 225.66C296.28 224.84 295.96 223.93 295.92 222.93H299.46C299.52 223.63 299.85 224.22 300.45 224.7C301.07 225.16 301.84 225.39 302.76 225.39C303.72 225.39 304.46 225.21 304.98 224.85C305.52 224.47 305.79 223.99 305.79 223.41C305.79 222.79 305.49 222.33 304.89 222.03C304.31 221.73 303.38 221.4 302.1 221.04C300.86 220.7 299.85 220.37 299.07 220.05C298.29 219.73 297.61 219.24 297.03 218.58C296.47 217.92 296.19 217.05 296.19 215.97C296.19 215.09 296.45 214.29 296.97 213.57C297.49 212.83 298.23 212.25 299.19 211.83C300.17 211.41 301.29 211.2 302.55 211.2C304.43 211.2 305.94 211.68 307.08 212.64C308.24 213.58 308.86 214.87 308.94 216.51H305.52C305.46 215.77 305.16 215.18 304.62 214.74C304.08 214.3 303.35 214.08 302.43 214.08C301.53 214.08 300.84 214.25 300.36 214.59C299.88 214.93 299.64 215.38 299.64 215.94C299.64 216.38 299.8 216.75 300.12 217.05C300.44 217.35 300.83 217.59 301.29 217.77C301.75 217.93 302.43 218.14 303.33 218.4C304.53 218.72 305.51 219.05 306.27 219.39C307.05 219.71 307.72 220.19 308.28 220.83C308.84 221.47 309.13 222.32 309.15 223.38C309.15 224.32 308.89 225.16 308.37 225.9C307.85 226.64 307.11 227.22 306.15 227.64C305.21 228.06 304.1 228.27 302.82 228.27Z" fill="#316499"/>
<path d="M125 231H310.59V232.5H125V231Z" fill="#316499"/>
</svg>
