<svg width="204" height="204" viewBox="0 0 204 204" fill="none" xmlns="http://www.w3.org/2000/svg">
<rect width="204" height="204" fill="#1E1E1E"/>
<rect width="1920" height="6060" transform="translate(-281 -1324)" fill="white"/>
<rect x="-173" y="-51" width="550" height="580" fill="white" stroke="#BDBDBD"/>
<circle cx="102" cy="102" r="100" stroke="#316499" stroke-width="3"/>
<path d="M133.167 90.75V68.6667H120.667V79.5L104 64.5L62.3333 102H74.8333V135.333H99.8333V110.333H108.167V135.333H133.167V102H145.667L133.167 90.75ZM124.833 127H116.5V102H91.5V127H83.1667V94.4583L104 75.7083L124.833 94.4583V127Z" fill="#316499"/>
<path d="M95.6667 93.6667H112.333C112.333 89.0834 108.583 85.3334 104 85.3334C99.4167 85.3334 95.6667 89.0834 95.6667 93.6667Z" fill="#316499"/>
</svg>
