<svg width="204" height="204" viewBox="0 0 204 204" fill="none" xmlns="http://www.w3.org/2000/svg">
<rect width="204" height="204" fill="#1E1E1E"/>
<rect width="1920" height="6060" transform="translate(-867 -1324)" fill="white"/>
<rect x="-173" y="-51" width="550" height="580" fill="white" stroke="#BDBDBD"/>
<circle cx="102" cy="102" r="100" stroke="#316499" stroke-width="3"/>
<path d="M139.5 79.0833V110.333H131.167V83.25L110.333 68.6667L89.5 83.25V89.5H81.1667V79.0833L110.333 58.25L139.5 79.0833ZM116.583 81.1667H112.417V85.3333H116.583V81.1667ZM108.25 81.1667H104.083V85.3333H108.25V81.1667ZM116.583 89.5H112.417V93.6667H116.583V89.5ZM108.25 89.5H104.083V93.6667H108.25V89.5ZM131.167 118.667H122.833C122.833 113.667 119.708 109.167 115.042 107.417L89.375 97.8333H56.1667V143.667H81.1667V137.667L110.333 145.75L143.667 135.333V131.167C143.667 124.25 138.083 118.667 131.167 118.667ZM64.5 135.333V106.167H72.8334V135.333H64.5ZM110.208 137.042L81.1667 129V106.167H87.875L112.125 115.208C113.542 115.75 114.5 117.125 114.5 118.667C114.5 118.667 106.208 118.458 104.917 118.042L95 114.75L92.375 122.667L102.292 125.958C104.417 126.667 106.625 127.042 108.875 127.042H131.167C132.792 127.042 134.25 128 134.917 129.375L110.208 137.042V137.042Z" fill="#316499"/>
</svg>
